<?xml version="1.0" encoding="UTF-8" standalone="no"?>
<!DOCTYPE svg PUBLIC "-//W3C//DTD SVG 1.1//EN"
 "http://www.w3.org/Graphics/SVG/1.1/DTD/svg11.dtd">
<!-- Generated by graphviz version 2.38.0 (20140413.2041)
 -->
<!-- Title: finite_state_machine Pages: 1 -->
<svg width="658pt" height="310pt"
 viewBox="0.00 0.00 658.11 310.00" xmlns="http://www.w3.org/2000/svg" xmlns:xlink="http://www.w3.org/1999/xlink">
<g id="graph0" class="graph" transform="scale(1 1) rotate(0) translate(4 306)">
<title>finite_state_machine</title>
<polygon fill="white" stroke="none" points="-4,4 -4,-306 654.111,-306 654.111,4 -4,4"/>
<!-- I -->
<g id="node1" class="node"><title>I</title>
<ellipse fill="none" stroke="black" cx="334.111" cy="-284" rx="18" ry="18"/>
<text text-anchor="middle" x="334.111" y="-280.9" font-family="Times,serif" font-size="12.00">I</text>
</g>
<!-- RSC -->
<g id="node2" class="node"><title>RSC</title>
<ellipse fill="none" stroke="black" cx="69.1115" cy="-202" rx="18" ry="18"/>
<text text-anchor="middle" x="69.1115" y="-198.9" font-family="Times,serif" font-size="12.00">RSC</text>
</g>
<!-- I&#45;&gt;RSC -->
<g id="edge1" class="edge"><title>I&#45;&gt;RSC</title>
<path fill="none" stroke="black" d="M315.845,-282.458C249.648,-280.311 25.1105,-271.344 4.11148,-248 -10.5062,-231.75 18.2157,-218.304 42.0133,-210.461"/>
<polygon fill="black" stroke="black" points="43.2462,-213.743 51.7701,-207.451 41.1826,-207.054 43.2462,-213.743"/>
<text text-anchor="middle" x="25.6115" y="-240.8" font-family="Times,serif" font-size="9.00">ReadShared</text>
</g>
<!-- RU -->
<g id="node3" class="node"><title>RU</title>
<ellipse fill="none" stroke="black" cx="293.111" cy="-110" rx="18" ry="18"/>
<text text-anchor="middle" x="293.111" y="-106.9" font-family="Times,serif" font-size="12.00">RU</text>
</g>
<!-- I&#45;&gt;RU -->
<g id="edge4" class="edge"><title>I&#45;&gt;RU</title>
<path fill="none" stroke="black" d="M316.773,-278.719C291.566,-271.456 245.68,-254.07 226.111,-220 218.143,-206.126 218.444,-198.043 226.111,-184 233.201,-171.015 243.415,-176.22 254.111,-166 263.668,-156.868 272.382,-145.091 279.137,-134.779"/>
<polygon fill="black" stroke="black" points="282.174,-136.525 284.542,-126.198 276.251,-132.795 282.174,-136.525"/>
<text text-anchor="middle" x="248.611" y="-199.8" font-family="Times,serif" font-size="9.00">ReadUnique</text>
</g>
<!-- I&#45;&gt;RU -->
<g id="edge5" class="edge"><title>I&#45;&gt;RU</title>
<path fill="none" stroke="black" d="M326.099,-267.64C319.934,-255.144 311.715,-236.876 307.111,-220 299.689,-192.793 296.171,-160.666 294.523,-138.37"/>
<polygon fill="black" stroke="black" points="298.008,-138.026 293.855,-128.279 291.023,-138.489 298.008,-138.026"/>
<text text-anchor="middle" x="330.611" y="-204.8" font-family="Times,serif" font-size="9.00">ReadUnique/</text>
<text text-anchor="middle" x="330.611" y="-194.8" font-family="Times,serif" font-size="9.00">SnpUnique</text>
</g>
<!-- RSC&#45;&gt;I -->
<g id="edge8" class="edge"><title>RSC&#45;&gt;I</title>
<path fill="none" stroke="black" d="M64.6731,-219.474C63.1804,-228.948 63.3323,-240.434 70.1115,-248 100.891,-282.351 244.054,-284.417 305.726,-283.657"/>
<polygon fill="black" stroke="black" points="305.968,-287.154 315.911,-283.496 305.857,-280.155 305.968,-287.154"/>
<text text-anchor="middle" x="103.611" y="-240.8" font-family="Times,serif" font-size="9.00">Evict (#sharers&gt;0)</text>
</g>
<!-- RSC&#45;&gt;I -->
<g id="edge16" class="edge"><title>RSC&#45;&gt;I</title>
<path fill="none" stroke="black" d="M84.8053,-211.382C106.64,-222.934 145.183,-242.905 160.111,-248 210.193,-265.091 271.385,-275.002 306.244,-279.675"/>
<polygon fill="black" stroke="black" points="305.808,-283.148 316.175,-280.959 306.706,-276.206 305.808,-283.148"/>
<text text-anchor="middle" x="180.611" y="-240.8" font-family="Times,serif" font-size="9.00">SnpUnique</text>
</g>
<!-- RSC&#45;&gt;RU -->
<g id="edge6" class="edge"><title>RSC&#45;&gt;RU</title>
<path fill="none" stroke="black" d="M52.8367,-193.985C31.3806,-183.793 -1.88145,-164.125 14.1115,-146 30.5186,-127.406 196.642,-116.279 264.484,-112.48"/>
<polygon fill="black" stroke="black" points="265.064,-115.954 274.858,-111.914 264.682,-108.964 265.064,-115.954"/>
<text text-anchor="middle" x="37.6115" y="-158.8" font-family="Times,serif" font-size="9.00">ReadUnique/</text>
<text text-anchor="middle" x="37.6115" y="-148.8" font-family="Times,serif" font-size="9.00">SnpUnique</text>
</g>
<!-- RU&#45;&gt;I -->
<g id="edge11" class="edge"><title>RU&#45;&gt;I</title>
<path fill="none" stroke="black" d="M306.692,-121.933C321.612,-134.907 344.705,-158.072 354.111,-184 363.054,-208.648 354.726,-238.279 346.252,-258.662"/>
<polygon fill="black" stroke="black" points="343.026,-257.304 342.156,-267.863 349.421,-260.151 343.026,-257.304"/>
<text text-anchor="middle" x="376.111" y="-199.8" font-family="Times,serif" font-size="9.00">WriteBack</text>
</g>
<!-- RU&#45;&gt;I -->
<g id="edge12" class="edge"><title>RU&#45;&gt;I</title>
<path fill="none" stroke="black" d="M310.123,-116.596C335.297,-125.939 381.401,-147.392 399.111,-184 406.079,-198.403 405.35,-205.266 399.111,-220 390.66,-239.961 372.447,-256.701 357.444,-267.896"/>
<polygon fill="black" stroke="black" points="355.211,-265.189 349.08,-273.829 359.261,-270.898 355.211,-265.189"/>
<text text-anchor="middle" x="422.111" y="-199.8" font-family="Times,serif" font-size="9.00">WriteEvict</text>
</g>
<!-- RU&#45;&gt;I -->
<g id="edge15" class="edge"><title>RU&#45;&gt;I</title>
<path fill="none" stroke="black" d="M310.897,-112.922C345.042,-117.717 418.73,-133.707 445.111,-184 452.544,-198.169 453.08,-206.126 445.111,-220 427.379,-250.872 388.181,-267.809 361.447,-276.141"/>
<polygon fill="black" stroke="black" points="360.167,-272.868 351.539,-279.017 362.118,-279.591 360.167,-272.868"/>
<text text-anchor="middle" x="470.611" y="-199.8" font-family="Times,serif" font-size="9.00">SnpUnique</text>
</g>
<!-- RU&#45;&gt;RSC -->
<g id="edge3" class="edge"><title>RU&#45;&gt;RSC</title>
<path fill="none" stroke="black" d="M274.993,-111.115C227.317,-111.829 100.185,-116.516 73.1115,-146 66.239,-153.484 64.3774,-164.216 64.5531,-174.216"/>
<polygon fill="black" stroke="black" points="61.0657,-174.516 65.349,-184.206 68.0436,-173.96 61.0657,-174.516"/>
<text text-anchor="middle" x="112.611" y="-158.8" font-family="Times,serif" font-size="9.00">ReadShared/</text>
<text text-anchor="middle" x="112.611" y="-148.8" font-family="Times,serif" font-size="9.00">SnpShared, clean resp</text>
</g>
<!-- RU&#45;&gt;RSC -->
<g id="edge13" class="edge"><title>RU&#45;&gt;RSC</title>
<path fill="none" stroke="black" d="M275.402,-113.816C251.49,-118.146 208.079,-127.902 175.111,-146 163.237,-152.519 163.607,-158.834 152.111,-166 134.417,-177.03 112.64,-186.064 95.8328,-192.19"/>
<polygon fill="black" stroke="black" points="94.3609,-188.997 86.0909,-195.62 96.6857,-195.6 94.3609,-188.997"/>
<text text-anchor="middle" x="214.611" y="-158.8" font-family="Times,serif" font-size="9.00">SnpShared/</text>
<text text-anchor="middle" x="214.611" y="-148.8" font-family="Times,serif" font-size="9.00">SnpShared, clean resp</text>
</g>
<!-- RSD -->
<g id="node4" class="node"><title>RSD</title>
<ellipse fill="none" stroke="black" cx="393.111" cy="-18" rx="18" ry="18"/>
<text text-anchor="middle" x="393.111" y="-14.9" font-family="Times,serif" font-size="12.00">RSD</text>
</g>
<!-- RU&#45;&gt;RSD -->
<g id="edge2" class="edge"><title>RU&#45;&gt;RSD</title>
<path fill="none" stroke="black" d="M277.046,-101.279C257.593,-90.896 229.074,-71.6901 243.111,-54 258.071,-35.1477 326.15,-25.5031 365.254,-21.4381"/>
<polygon fill="black" stroke="black" points="365.607,-24.9204 375.216,-20.4579 364.921,-17.954 365.607,-24.9204"/>
<text text-anchor="middle" x="282.111" y="-66.8" font-family="Times,serif" font-size="9.00">ReadShared/</text>
<text text-anchor="middle" x="282.111" y="-56.8" font-family="Times,serif" font-size="9.00">SnpShared, dirty resp</text>
</g>
<!-- RU&#45;&gt;RSD -->
<g id="edge14" class="edge"><title>RU&#45;&gt;RSD</title>
<path fill="none" stroke="black" d="M303.968,-95.4379C315.275,-81.4735 332.393,-60.8194 340.111,-54 348.878,-46.254 359.482,-38.9171 368.893,-32.9805"/>
<polygon fill="black" stroke="black" points="370.745,-35.9509 377.453,-27.7502 367.095,-29.9777 370.745,-35.9509"/>
<text text-anchor="middle" x="379.111" y="-66.8" font-family="Times,serif" font-size="9.00">SnpShared/</text>
<text text-anchor="middle" x="379.111" y="-56.8" font-family="Times,serif" font-size="9.00">SnpShared, dirty resp</text>
</g>
<!-- RSD&#45;&gt;I -->
<g id="edge10" class="edge"><title>RSD&#45;&gt;I</title>
<path fill="none" stroke="black" d="M411.133,-21.3868C430.407,-24.9505 460.323,-33.5906 476.111,-54 529.501,-123.015 517.317,-184.353 495.111,-220 467.018,-265.1 400.791,-277.952 362.604,-281.589"/>
<polygon fill="black" stroke="black" points="361.869,-278.136 352.178,-282.419 362.424,-285.114 361.869,-278.136"/>
<text text-anchor="middle" x="556.111" y="-153.8" font-family="Times,serif" font-size="9.00">WriteBack (#sharers=0)</text>
</g>
<!-- RSD&#45;&gt;I -->
<g id="edge17" class="edge"><title>RSD&#45;&gt;I</title>
<path fill="none" stroke="black" d="M410.931,-22.5655C469.081,-35.0987 647.102,-81.0308 603.111,-166 556.822,-255.409 421.604,-276.501 362.412,-281.471"/>
<polygon fill="black" stroke="black" points="361.996,-277.992 352.283,-282.224 362.515,-284.973 361.996,-277.992"/>
<text text-anchor="middle" x="629.611" y="-153.8" font-family="Times,serif" font-size="9.00">SnpUnique</text>
</g>
<!-- RSD&#45;&gt;RSC -->
<g id="edge9" class="edge"><title>RSD&#45;&gt;RSC</title>
<path fill="none" stroke="black" d="M375.368,-21.9231C305.33,-33.8669 49.77,-81.4103 6.11148,-146 -6.76566,-165.051 20.4022,-181.58 42.9956,-191.417"/>
<polygon fill="black" stroke="black" points="41.6877,-194.663 52.2684,-195.21 44.3383,-188.184 41.6877,-194.663"/>
<text text-anchor="middle" x="133.111" y="-107.8" font-family="Times,serif" font-size="9.00">WriteBack (#sharers&gt;0)</text>
</g>
<!-- RSD&#45;&gt;RU -->
<g id="edge7" class="edge"><title>RSD&#45;&gt;RU</title>
<path fill="none" stroke="black" d="M406.714,-30.6147C418.653,-42.2265 432.604,-60.2812 422.111,-74 409.931,-89.9254 355.419,-100.298 321.273,-105.359"/>
<polygon fill="black" stroke="black" points="320.392,-101.948 310.981,-106.815 321.373,-108.879 320.392,-101.948"/>
<text text-anchor="middle" x="448.611" y="-66.8" font-family="Times,serif" font-size="9.00">ReadUnique/</text>
<text text-anchor="middle" x="448.611" y="-56.8" font-family="Times,serif" font-size="9.00">SnpUnique</text>
</g>
</g>
</svg>
