<?xml version="1.0" encoding="UTF-8" standalone="no"?>
<!-- Created with Inkscape (http://www.inkscape.org/) -->

<svg
   xmlns:dc="http://purl.org/dc/elements/1.1/"
   xmlns:cc="http://creativecommons.org/ns#"
   xmlns:rdf="http://www.w3.org/1999/02/22-rdf-syntax-ns#"
   xmlns:svg="http://www.w3.org/2000/svg"
   xmlns="http://www.w3.org/2000/svg"
   xmlns:sodipodi="http://sodipodi.sourceforge.net/DTD/sodipodi-0.dtd"
   xmlns:inkscape="http://www.inkscape.org/namespaces/inkscape"
   version="1.1"
   id="svg2"
   xml:space="preserve"
   width="816"
   height="1056"
   viewBox="0 0 816 1056"
   sodipodi:docname="gem5masterFile.ai"
   inkscape:version="0.92.3 (2405546, 2018-03-11)"><metadata
     id="metadata8"><rdf:RDF><cc:Work
         rdf:about=""><dc:format>image/svg+xml</dc:format><dc:type
           rdf:resource="http://purl.org/dc/dcmitype/StillImage" /><dc:title></dc:title></cc:Work></rdf:RDF></metadata><defs
     id="defs6"><clipPath
       clipPathUnits="userSpaceOnUse"
       id="clipPath20"><path
         d="m 61.541,479.164 c -6.055,-6.057 -6.055,-15.883 0,-21.939 v 0 c 4.695,-4.693 11.643,-5.736 17.354,-3.154 v 0 -5.495 H 62.072 l -4.539,-4.569 h 25.93 v 20.368 L 79.54,460.453 H 64.735 l 18.728,18.737 c -3.025,3.013 -6.985,4.52 -10.947,4.52 v 0 c -3.972,0 -7.944,-1.515 -10.975,-4.546"
         id="path18"
         inkscape:connector-curvature="0" /></clipPath><radialGradient
       fx="0"
       fy="0"
       cx="0"
       cy="0"
       r="1"
       gradientUnits="userSpaceOnUse"
       gradientTransform="matrix(16.869369,0,0,-16.869369,70.231934,463.85791)"
       spreadMethod="pad"
       id="radialGradient30"><stop
         style="stop-opacity:1;stop-color:#939598"
         offset="0"
         id="stop26" /><stop
         style="stop-opacity:1;stop-color:#77787b"
         offset="1"
         id="stop28" /></radialGradient><clipPath
       clipPathUnits="userSpaceOnUse"
       id="clipPath40"><path
         d="m 83.481,499.547 v -20.344 l 3.905,3.902 14.802,0.005 -18.717,-18.735 c 6.058,-6.049 15.876,-6.04 21.935,0.013 v 0 c 6.062,6.053 6.062,15.882 0,21.939 v 0 c -4.697,4.692 -11.643,5.735 -17.357,3.155 v 0 5.495 h 16.806 l 4.566,4.57 z"
         id="path38"
         inkscape:connector-curvature="0" /></clipPath><radialGradient
       fx="0"
       fy="0"
       cx="0"
       cy="0"
       r="1"
       gradientUnits="userSpaceOnUse"
       gradientTransform="matrix(16.873291,0,0,-16.873291,96.711426,479.69434)"
       spreadMethod="pad"
       id="radialGradient50"><stop
         style="stop-opacity:1;stop-color:#35aad1"
         offset="0"
         id="stop46" /><stop
         style="stop-opacity:1;stop-color:#008eb0"
         offset="1"
         id="stop48" /></radialGradient><clipPath
       clipPathUnits="userSpaceOnUse"
       id="clipPath60"><path
         d="M 0,792 H 612 V 0 H 0 Z"
         id="path58"
         inkscape:connector-curvature="0" /></clipPath><clipPath
       clipPathUnits="userSpaceOnUse"
       id="clipPath100"><path
         d="m 118.978,669.019 c -12.695,-12.689 -12.695,-33.276 0,-45.976 v 0 c 9.836,-9.829 24.396,-12.008 36.361,-6.6 v 0 -11.524 h -35.19 l -9.581,-9.567 h 54.338 v 42.668 l -8.211,-8.21 h -31.027 l 39.241,39.244 c -6.343,6.321 -14.648,9.482 -22.951,9.483 v 0 c -8.319,0 -16.635,-3.172 -22.98,-9.518"
         id="path98"
         inkscape:connector-curvature="0" /></clipPath><radialGradient
       fx="0"
       fy="0"
       cx="0"
       cy="0"
       r="1"
       gradientUnits="userSpaceOnUse"
       gradientTransform="matrix(35.345718,0,0,-35.345718,137.18311,636.94434)"
       spreadMethod="pad"
       id="radialGradient110"><stop
         style="stop-opacity:1;stop-color:#939598"
         offset="0"
         id="stop106" /><stop
         style="stop-opacity:1;stop-color:#77787b"
         offset="1"
         id="stop108" /></radialGradient><clipPath
       clipPathUnits="userSpaceOnUse"
       id="clipPath120"><path
         d="m 164.957,711.713 v -42.615 l 8.164,8.174 h 31.028 l -39.227,-39.226 c 12.698,-12.693 33.27,-12.682 45.96,0 v 0 c 12.697,12.697 12.697,33.285 0,45.974 v 0 c -9.836,9.832 -24.399,12.019 -36.362,6.61 v 0 11.517 h 35.257 l 9.515,9.566 z"
         id="path118"
         inkscape:connector-curvature="0" /></clipPath><radialGradient
       fx="0"
       fy="0"
       cx="0"
       cy="0"
       r="1"
       gradientUnits="userSpaceOnUse"
       gradientTransform="matrix(35.351211,0,0,-35.351211,192.66357,670.12158)"
       spreadMethod="pad"
       id="radialGradient130"><stop
         style="stop-opacity:1;stop-color:#35aad1"
         offset="0"
         id="stop126" /><stop
         style="stop-opacity:1;stop-color:#008eb0"
         offset="1"
         id="stop128" /></radialGradient><clipPath
       clipPathUnits="userSpaceOnUse"
       id="clipPath140"><path
         d="m 61.541,114.445 c -6.055,-6.054 -6.055,-15.881 0,-21.94 v 0 c 4.695,-4.696 11.643,-5.74 17.354,-3.152 v 0 -5.501 H 62.072 l -4.539,-4.565 h 25.93 V 99.661 L 79.54,95.735 H 64.735 l 18.728,18.736 c -3.024,3.01 -6.985,4.516 -10.946,4.516 v 0 c -3.973,0 -7.945,-1.514 -10.976,-4.542"
         id="path138"
         inkscape:connector-curvature="0" /></clipPath><radialGradient
       fx="0"
       fy="0"
       cx="0"
       cy="0"
       r="1"
       gradientUnits="userSpaceOnUse"
       gradientTransform="matrix(16.868591,0,0,-16.868576,70.231934,99.136719)"
       spreadMethod="pad"
       id="radialGradient150"><stop
         style="stop-opacity:1;stop-color:#4c4d4f"
         offset="0"
         id="stop146" /><stop
         style="stop-opacity:1;stop-color:#231f20"
         offset="1"
         id="stop148" /></radialGradient><clipPath
       clipPathUnits="userSpaceOnUse"
       id="clipPath160"><path
         d="m 83.481,134.826 v -20.342 l 3.905,3.897 14.802,0.009 -18.717,-18.729 c 6.058,-6.058 15.876,-6.049 21.935,0.002 v 0 c 6.062,6.057 6.062,15.883 0,21.949 v 0 c -4.697,4.686 -11.643,5.727 -17.357,3.148 v 0 5.498 h 16.806 l 4.566,4.568 z"
         id="path158"
         inkscape:connector-curvature="0" /></clipPath><radialGradient
       fx="0"
       fy="0"
       cx="0"
       cy="0"
       r="1"
       gradientUnits="userSpaceOnUse"
       gradientTransform="matrix(16.87381,0,0,-16.87381,96.711426,114.97363)"
       spreadMethod="pad"
       id="radialGradient170"><stop
         style="stop-opacity:1;stop-color:#8a8c8e"
         offset="0"
         id="stop166" /><stop
         style="stop-opacity:1;stop-color:#636466"
         offset="1"
         id="stop168" /></radialGradient><clipPath
       clipPathUnits="userSpaceOnUse"
       id="clipPath180"><path
         d="M 0,792 H 612 V 0 H 0 Z"
         id="path178"
         inkscape:connector-curvature="0" /></clipPath><clipPath
       clipPathUnits="userSpaceOnUse"
       id="clipPath220"><path
         d="m 118.978,304.302 c -12.695,-12.698 -12.695,-33.281 0,-45.98 v 0 c 9.836,-9.832 24.396,-12.008 36.361,-6.604 v 0 -11.515 h -35.19 l -9.581,-9.569 h 54.338 v 42.667 l -8.211,-8.207 h -31.027 l 39.241,39.237 c -6.344,6.324 -14.649,9.486 -22.953,9.486 v 0 c -8.318,0 -16.634,-3.172 -22.978,-9.515"
         id="path218"
         inkscape:connector-curvature="0" /></clipPath><radialGradient
       fx="0"
       fy="0"
       cx="0"
       cy="0"
       r="1"
       gradientUnits="userSpaceOnUse"
       gradientTransform="matrix(35.34494,0,0,-35.34494,137.18311,272.22461)"
       spreadMethod="pad"
       id="radialGradient230"><stop
         style="stop-opacity:1;stop-color:#4c4d4f"
         offset="0"
         id="stop226" /><stop
         style="stop-opacity:1;stop-color:#231f20"
         offset="1"
         id="stop228" /></radialGradient><clipPath
       clipPathUnits="userSpaceOnUse"
       id="clipPath240"><path
         d="m 164.957,346.99 v -42.616 l 8.164,8.177 h 31.028 L 164.922,273.32 c 12.698,-12.686 33.27,-12.675 45.96,0 v 0 c 12.697,12.699 12.697,33.295 0,45.98 v 0 c -9.836,9.833 -24.399,12.022 -36.362,6.607 v 0 11.517 h 35.257 l 9.515,9.566 z"
         id="path238"
         inkscape:connector-curvature="0" /></clipPath><radialGradient
       fx="0"
       fy="0"
       cx="0"
       cy="0"
       r="1"
       gradientUnits="userSpaceOnUse"
       gradientTransform="matrix(35.350693,0,0,-35.350693,192.66357,305.39941)"
       spreadMethod="pad"
       id="radialGradient250"><stop
         style="stop-opacity:1;stop-color:#8a8c8e"
         offset="0"
         id="stop246" /><stop
         style="stop-opacity:1;stop-color:#636466"
         offset="1"
         id="stop248" /></radialGradient><clipPath
       clipPathUnits="userSpaceOnUse"
       id="clipPath260"><path
         d="m 337.61,479.164 c -6.056,-6.057 -6.056,-15.883 0,-21.939 v 0 c 4.698,-4.693 11.641,-5.736 17.355,-3.154 v 0 -5.495 h -16.822 l -4.543,-4.569 h 25.935 v 20.368 l -3.927,-3.922 h -14.803 l 18.73,18.737 c -3.025,3.013 -6.985,4.52 -10.946,4.52 v 0 c -3.973,0 -7.946,-1.515 -10.979,-4.546"
         id="path258"
         inkscape:connector-curvature="0" /></clipPath><radialGradient
       fx="0"
       fy="0"
       cx="0"
       cy="0"
       r="1"
       gradientUnits="userSpaceOnUse"
       gradientTransform="matrix(16.870239,0,0,-16.870239,346.30273,463.85791)"
       spreadMethod="pad"
       id="radialGradient270"><stop
         style="stop-opacity:1;stop-color:#939598"
         offset="0"
         id="stop266" /><stop
         style="stop-opacity:1;stop-color:#77787b"
         offset="1"
         id="stop268" /></radialGradient><clipPath
       clipPathUnits="userSpaceOnUse"
       id="clipPath280"><path
         d="m 359.553,499.547 v -20.344 l 3.902,3.902 14.806,0.005 -18.718,-18.735 c 6.059,-6.049 15.876,-6.04 21.935,0.013 v 0 c 6.058,6.053 6.058,15.882 0,21.939 v 0 c -4.699,4.692 -11.643,5.735 -17.358,3.155 v 0 5.495 h 16.807 l 4.565,4.57 z"
         id="path278"
         inkscape:connector-curvature="0" /></clipPath><radialGradient
       fx="0"
       fy="0"
       cx="0"
       cy="0"
       r="1"
       gradientUnits="userSpaceOnUse"
       gradientTransform="matrix(16.872589,0,0,-16.872589,372.78223,479.69434)"
       spreadMethod="pad"
       id="radialGradient290"><stop
         style="stop-opacity:1;stop-color:#35aad1"
         offset="0"
         id="stop286" /><stop
         style="stop-opacity:1;stop-color:#008eb0"
         offset="1"
         id="stop288" /></radialGradient><clipPath
       clipPathUnits="userSpaceOnUse"
       id="clipPath300"><path
         d="M 0,792 H 612 V 0 H 0 Z"
         id="path298"
         inkscape:connector-curvature="0" /></clipPath><clipPath
       clipPathUnits="userSpaceOnUse"
       id="clipPath340"><path
         d="m 395.049,669.019 c -12.694,-12.689 -12.694,-33.276 0,-45.976 v 0 c 9.834,-9.829 24.392,-12.008 36.363,-6.6 v 0 -11.524 h -35.194 l -9.581,-9.567 h 54.339 v 42.668 l -8.214,-8.21 h -31.025 l 39.242,39.244 c -6.343,6.321 -14.648,9.482 -22.951,9.483 v 0 c -8.319,0 -16.636,-3.172 -22.979,-9.518"
         id="path338"
         inkscape:connector-curvature="0" /></clipPath><radialGradient
       fx="0"
       fy="0"
       cx="0"
       cy="0"
       r="1"
       gradientUnits="userSpaceOnUse"
       gradientTransform="matrix(35.345718,0,0,-35.345718,413.25586,636.94434)"
       spreadMethod="pad"
       id="radialGradient350"><stop
         style="stop-opacity:1;stop-color:#939598"
         offset="0"
         id="stop346" /><stop
         style="stop-opacity:1;stop-color:#77787b"
         offset="1"
         id="stop348" /></radialGradient><clipPath
       clipPathUnits="userSpaceOnUse"
       id="clipPath360"><path
         d="m 441.025,711.713 v -42.615 l 8.168,8.174 h 31.023 l -39.223,-39.226 c 12.697,-12.693 33.272,-12.682 45.96,0 v 0 c 12.697,12.697 12.697,33.285 0,45.974 v 0 c -9.839,9.832 -24.403,12.019 -36.363,6.61 v 0 11.517 h 35.254 l 9.521,9.566 z"
         id="path358"
         inkscape:connector-curvature="0" /></clipPath><radialGradient
       fx="0"
       fy="0"
       cx="0"
       cy="0"
       r="1"
       gradientUnits="userSpaceOnUse"
       gradientTransform="matrix(35.351211,0,0,-35.351211,468.73535,670.12158)"
       spreadMethod="pad"
       id="radialGradient370"><stop
         style="stop-opacity:1;stop-color:#35aad1"
         offset="0"
         id="stop366" /><stop
         style="stop-opacity:1;stop-color:#008eb0"
         offset="1"
         id="stop368" /></radialGradient><clipPath
       clipPathUnits="userSpaceOnUse"
       id="clipPath380"><path
         d="m 337.61,114.445 c -6.056,-6.054 -6.056,-15.881 0,-21.94 v 0 c 4.698,-4.696 11.641,-5.74 17.355,-3.152 v 0 -5.501 H 338.143 L 333.6,79.287 h 25.935 v 20.374 l -3.927,-3.926 h -14.803 l 18.73,18.736 c -3.024,3.01 -6.985,4.516 -10.946,4.516 v 0 c -3.973,0 -7.946,-1.514 -10.979,-4.542"
         id="path378"
         inkscape:connector-curvature="0" /></clipPath><radialGradient
       fx="0"
       fy="0"
       cx="0"
       cy="0"
       r="1"
       gradientUnits="userSpaceOnUse"
       gradientTransform="matrix(16.869461,0,0,-16.869461,346.30273,99.136719)"
       spreadMethod="pad"
       id="radialGradient390"><stop
         style="stop-opacity:1;stop-color:#8a8c8e"
         offset="0"
         id="stop386" /><stop
         style="stop-opacity:1;stop-color:#636466"
         offset="1"
         id="stop388" /></radialGradient><clipPath
       clipPathUnits="userSpaceOnUse"
       id="clipPath400"><path
         d="m 359.553,134.826 v -20.342 l 3.902,3.897 14.806,0.009 -18.718,-18.729 c 6.059,-6.058 15.876,-6.049 21.935,0.002 v 0 c 6.058,6.057 6.058,15.883 0,21.949 v 0 c -4.699,4.686 -11.643,5.727 -17.358,3.148 v 0 5.498 h 16.807 l 4.565,4.568 z"
         id="path398"
         inkscape:connector-curvature="0" /></clipPath><radialGradient
       fx="0"
       fy="0"
       cx="0"
       cy="0"
       r="1"
       gradientUnits="userSpaceOnUse"
       gradientTransform="matrix(16.873123,0,0,-16.873123,372.78223,114.97363)"
       spreadMethod="pad"
       id="radialGradient410"><stop
         style="stop-opacity:1;stop-color:#ffffff"
         offset="0"
         id="stop406" /><stop
         style="stop-opacity:1;stop-color:#dcddde"
         offset="1"
         id="stop408" /></radialGradient><clipPath
       clipPathUnits="userSpaceOnUse"
       id="clipPath420"><path
         d="M 0,792 H 612 V 0 H 0 Z"
         id="path418"
         inkscape:connector-curvature="0" /></clipPath><clipPath
       clipPathUnits="userSpaceOnUse"
       id="clipPath460"><path
         d="m 395.049,304.302 c -12.694,-12.698 -12.694,-33.281 0,-45.98 v 0 c 9.834,-9.832 24.392,-12.008 36.363,-6.604 v 0 -11.515 h -35.194 l -9.581,-9.569 h 54.339 v 42.667 l -8.214,-8.207 h -31.025 l 39.242,39.237 c -6.343,6.324 -14.649,9.486 -22.953,9.486 v 0 c -8.319,0 -16.635,-3.172 -22.977,-9.515"
         id="path458"
         inkscape:connector-curvature="0" /></clipPath><radialGradient
       fx="0"
       fy="0"
       cx="0"
       cy="0"
       r="1"
       gradientUnits="userSpaceOnUse"
       gradientTransform="matrix(35.34494,0,0,-35.34494,413.25586,272.22461)"
       spreadMethod="pad"
       id="radialGradient470"><stop
         style="stop-opacity:1;stop-color:#8a8c8e"
         offset="0"
         id="stop466" /><stop
         style="stop-opacity:1;stop-color:#636466"
         offset="1"
         id="stop468" /></radialGradient><clipPath
       clipPathUnits="userSpaceOnUse"
       id="clipPath480"><path
         d="m 441.025,346.99 v -42.616 l 8.168,8.177 h 31.023 L 440.993,273.32 c 12.697,-12.686 33.272,-12.675 45.96,0 v 0 c 12.697,12.699 12.697,33.295 0,45.98 v 0 c -9.839,9.833 -24.403,12.022 -36.363,6.607 v 0 11.517 h 35.254 l 9.521,9.566 z"
         id="path478"
         inkscape:connector-curvature="0" /></clipPath><radialGradient
       fx="0"
       fy="0"
       cx="0"
       cy="0"
       r="1"
       gradientUnits="userSpaceOnUse"
       gradientTransform="matrix(35.350693,0,0,-35.350693,468.73535,305.39941)"
       spreadMethod="pad"
       id="radialGradient490"><stop
         style="stop-opacity:1;stop-color:#ffffff"
         offset="0"
         id="stop486" /><stop
         style="stop-opacity:1;stop-color:#dcddde"
         offset="1"
         id="stop488" /></radialGradient></defs><sodipodi:namedview
     pagecolor="#ffffff"
     bordercolor="#666666"
     borderopacity="1"
     objecttolerance="10"
     gridtolerance="10"
     guidetolerance="10"
     inkscape:pageopacity="0"
     inkscape:pageshadow="2"
     inkscape:window-width="1423"
     inkscape:window-height="937"
     id="namedview4"
     showgrid="false"
     inkscape:zoom="0.63211061"
     inkscape:cx="267.28066"
     inkscape:cy="587.05626"
     inkscape:window-x="0"
     inkscape:window-y="27"
     inkscape:window-maximized="0"
     inkscape:current-layer="g10" /><g
     id="g10"
     inkscape:groupmode="layer"
     inkscape:label="gem5masterFile"
     transform="matrix(1.3333333,0,0,-1.3333333,0,1056)"><path
       d="M 576,36 H 306 v 720 h 270 z"
       style="fill:#231f20;fill-opacity:1;fill-rule:nonzero;stroke:none"
       id="path12"
       inkscape:connector-curvature="0" /><g
       id="g14"><g
         id="g16"
         clip-path="url(#clipPath20)"><g
           id="g22"><g
             id="g24"><path
               d="m 61.541,479.164 c -6.055,-6.057 -6.055,-15.883 0,-21.939 v 0 c 4.695,-4.693 11.643,-5.736 17.354,-3.154 v 0 -5.495 H 62.072 l -4.539,-4.569 h 25.93 v 20.368 L 79.54,460.453 H 64.735 l 18.728,18.737 c -3.025,3.013 -6.985,4.52 -10.947,4.52 v 0 c -3.972,0 -7.944,-1.515 -10.975,-4.546"
               style="fill:url(#radialGradient30);stroke:none"
               id="path32"
               inkscape:connector-curvature="0" /></g></g></g></g><g
       id="g34"><g
         id="g36"
         clip-path="url(#clipPath40)"><g
           id="g42"><g
             id="g44"><path
               d="m 83.481,499.547 v -20.344 l 3.905,3.902 14.802,0.005 -18.717,-18.735 c 6.058,-6.049 15.876,-6.04 21.935,0.013 v 0 c 6.062,6.053 6.062,15.882 0,21.939 v 0 c -4.697,4.692 -11.643,5.735 -17.357,3.155 v 0 5.495 h 16.806 l 4.566,4.57 z"
               style="fill:url(#radialGradient50);stroke:none"
               id="path52"
               inkscape:connector-curvature="0" /></g></g></g></g><g
       id="g54"><g
         id="g56"
         clip-path="url(#clipPath60)"><g
           id="g62"
           transform="translate(141.9434,459.333)"><path
             d="m 0,0 c -4.31,-3.091 -10.336,-2.714 -14.21,1.161 -4.307,4.313 -4.307,11.295 0,15.601 4.308,4.305 11.29,4.305 15.598,0 l 3.219,3.218 c -6.085,6.087 -15.953,6.087 -22.034,0 -6.086,-6.084 -6.086,-15.956 0,-22.036 C -12.71,-6.768 -5.734,-7.814 0,-5.223 v -5.516 h -16.87 l -4.586,-4.587 H 4.585 V 5.142 c 0,0 -1.201,-1.986 -3.197,-3.975 C 0.951,0.728 0.479,0.349 0,0"
             style="fill:#77787b;fill-opacity:1;fill-rule:nonzero;stroke:none"
             id="path64"
             inkscape:connector-curvature="0" /></g><g
           id="g66"
           transform="translate(250.8813,477.2539)"><path
             d="m 0,0 c 4.309,3.085 10.337,2.708 14.207,-1.163 4.307,-4.31 4.307,-11.295 0,-15.6 -4.312,-4.306 -11.291,-4.306 -15.601,0 l -3.217,-3.217 c 6.091,-6.089 15.953,-6.081 22.03,0 6.085,6.083 6.085,15.95 0,22.028 C 12.71,6.766 5.731,7.807 0,5.221 v 5.516 h 16.867 l 4.585,4.585 H -4.589 V -5.144 c 0,0 1.203,1.984 3.195,3.981 C -0.953,-0.734 -0.491,-0.351 0,0"
             style="fill:#008eb0;fill-opacity:1;fill-rule:nonzero;stroke:none"
             id="path68"
             inkscape:connector-curvature="0" /></g><g
           id="g70"
           transform="translate(158.4678,476.0518)"><path
             d="m 0,0 c 4.284,4.28 11.229,4.28 15.509,0 0.935,-0.939 1.65,-2.009 2.175,-3.148 H -2.189 C -1.657,-2.009 -0.939,-0.939 0,0 m 0,-15.517 c -2.14,2.143 -3.213,4.947 -3.213,7.755 h 26.548 c 0,1.559 -0.239,3.11 -0.701,4.614 -0.729,2.344 -2.006,4.558 -3.866,6.41 -6.082,6.087 -15.944,6.087 -22.029,0 -6.083,-6.09 -6.083,-15.957 0,-22.036 6.085,-6.093 15.947,-6.093 22.029,0 l -3.259,3.257 c -4.28,-4.285 -11.225,-4.285 -15.509,0"
             style="fill:#77787b;fill-opacity:1;fill-rule:nonzero;stroke:none"
             id="path72"
             inkscape:connector-curvature="0" /></g><g
           id="g74"
           transform="translate(225.9214,483.8706)"><path
             d="M 0,0 C -5.627,0 -10.541,-2.981 -13.278,-7.447 -16.019,-2.981 -20.931,0 -26.557,0 c -3.209,0 -6.186,-0.969 -8.666,-2.63 -1.863,-1.251 -3.426,-2.906 -4.612,-4.817 V -30.65 h 4.612 v 21.78 c 2.012,2.589 5.137,4.262 8.666,4.262 6.06,0 10.97,-4.917 10.97,-10.973 V -30.65 h 4.612 v 15.069 c 0,6.056 4.912,10.973 10.975,10.973 6.054,0 10.971,-4.917 10.971,-10.973 V -30.65 h 4.606 v 15.069 C 15.577,-6.972 8.603,0 0,0"
             style="fill:#008eb0;fill-opacity:1;fill-rule:nonzero;stroke:none"
             id="path76"
             inkscape:connector-curvature="0" /></g><g
           id="g78"
           transform="translate(110.7539,555.395)"><path
             d="m 0,0 c -4.285,-3.08 -10.28,-2.699 -14.132,1.155 -4.285,4.287 -4.285,11.238 0,15.515 4.281,4.289 11.222,4.289 15.513,0 l 3.194,3.202 c -6.046,6.055 -15.859,6.055 -21.915,0 -6.047,-6.053 -6.047,-15.865 0,-21.918 4.695,-4.687 11.632,-5.728 17.34,-3.15 v -5.49 h -16.781 l -4.562,-4.562 H 4.561 V 5.107 c 0,0 -1.199,-1.964 -3.18,-3.952 C 0.95,0.725 0.48,0.347 0,0"
             style="fill:#77787b;fill-opacity:1;fill-rule:nonzero;stroke:none"
             id="path80"
             inkscape:connector-curvature="0" /></g><g
           id="g82"
           transform="translate(219.1118,573.2222)"><path
             d="m 0,0 c 4.28,3.068 10.282,2.688 14.13,-1.157 4.291,-4.289 4.291,-11.235 0,-15.522 -4.279,-4.281 -11.228,-4.281 -15.514,0 l -3.199,-3.194 c 6.056,-6.056 15.869,-6.056 21.916,0 6.051,6.044 6.051,15.854 0,21.911 C 12.643,6.722 5.703,7.766 0,5.186 v 5.49 h 16.775 l 4.563,4.562 H -4.56 V 2.054 -5.121 c 0,0 1.188,1.979 3.176,3.964 C -0.949,-0.734 -0.486,-0.354 0,0"
             style="fill:#008eb0;fill-opacity:1;fill-rule:nonzero;stroke:none"
             id="path84"
             inkscape:connector-curvature="0" /></g><g
           id="g86"
           transform="translate(127.1885,572.0239)"><path
             d="m 0,0 c 4.258,4.248 11.17,4.248 15.435,0 0.929,-0.932 1.633,-1.995 2.158,-3.138 H -2.174 C -1.648,-1.995 -0.931,-0.932 0,0 m 0,-15.438 c -2.133,2.135 -3.197,4.923 -3.197,7.719 h 26.406 c 0,1.546 -0.234,3.091 -0.698,4.581 -0.713,2.329 -1.992,4.528 -3.838,6.381 -6.052,6.055 -15.863,6.055 -21.921,0 -6.048,-6.063 -6.048,-15.873 0,-21.918 6.058,-6.055 15.869,-6.055 21.921,0 l -3.238,3.237 C 11.17,-19.699 4.258,-19.699 0,-15.438"
             style="fill:#77787b;fill-opacity:1;fill-rule:nonzero;stroke:none"
             id="path88"
             inkscape:connector-curvature="0" /></g><g
           id="g90"
           transform="translate(194.2832,579.8037)"><path
             d="M 0,0 C -5.595,0 -10.479,-2.974 -13.211,-7.416 -15.932,-2.974 -20.82,0 -26.415,0 c -3.189,0 -6.148,-0.972 -8.614,-2.623 -1.86,-1.242 -3.419,-2.885 -4.584,-4.793 v -23.075 h 4.584 v 21.665 c 1.999,2.576 5.109,4.236 8.614,4.236 6.03,0 10.91,-4.879 10.91,-10.909 v -14.992 h 4.592 v 14.992 c 0,6.03 4.888,10.909 10.913,10.909 6.024,0 10.908,-4.879 10.908,-10.909 v -14.992 h 4.591 v 14.992 C 15.499,-6.936 8.557,0 0,0"
             style="fill:#008eb0;fill-opacity:1;fill-rule:nonzero;stroke:none"
             id="path92"
             inkscape:connector-curvature="0" /></g></g></g><g
       id="g94"><g
         id="g96"
         clip-path="url(#clipPath100)"><g
           id="g102"><g
             id="g104"><path
               d="m 118.978,669.019 c -12.695,-12.689 -12.695,-33.276 0,-45.976 v 0 c 9.836,-9.829 24.396,-12.008 36.361,-6.6 v 0 -11.524 h -35.19 l -9.581,-9.567 h 54.338 v 42.668 l -8.211,-8.21 h -31.027 l 39.241,39.244 c -6.343,6.321 -14.648,9.482 -22.951,9.483 v 0 c -8.319,0 -16.635,-3.172 -22.98,-9.518"
               style="fill:url(#radialGradient110);stroke:none"
               id="path112"
               inkscape:connector-curvature="0" /></g></g></g></g><g
       id="g114"><g
         id="g116"
         clip-path="url(#clipPath120)"><g
           id="g122"><g
             id="g124"><path
               d="m 164.957,711.713 v -42.615 l 8.164,8.174 h 31.028 l -39.227,-39.226 c 12.698,-12.693 33.27,-12.682 45.96,0 v 0 c 12.697,12.697 12.697,33.285 0,45.974 v 0 c -9.836,9.832 -24.399,12.019 -36.362,6.61 v 0 11.517 h 35.257 l 9.515,9.566 z"
               style="fill:url(#radialGradient130);stroke:none"
               id="path132"
               inkscape:connector-curvature="0" /></g></g></g></g><g
       id="g134"><g
         id="g136"
         clip-path="url(#clipPath140)"><g
           id="g142"><g
             id="g144"><path
               d="m 61.541,114.445 c -6.055,-6.054 -6.055,-15.881 0,-21.94 v 0 c 4.695,-4.696 11.643,-5.74 17.354,-3.152 v 0 -5.501 H 62.072 l -4.539,-4.565 h 25.93 V 99.661 L 79.54,95.735 H 64.735 l 18.728,18.736 c -3.024,3.01 -6.985,4.516 -10.946,4.516 v 0 c -3.973,0 -7.945,-1.514 -10.976,-4.542"
               style="fill:url(#radialGradient150);stroke:none"
               id="path152"
               inkscape:connector-curvature="0" /></g></g></g></g><g
       id="g154"><g
         id="g156"
         clip-path="url(#clipPath160)"><g
           id="g162"><g
             id="g164"><path
               d="m 83.481,134.826 v -20.342 l 3.905,3.897 14.802,0.009 -18.717,-18.729 c 6.058,-6.058 15.876,-6.049 21.935,0.002 v 0 c 6.062,6.057 6.062,15.883 0,21.949 v 0 c -4.697,4.686 -11.643,5.727 -17.357,3.148 v 0 5.498 h 16.806 l 4.566,4.568 z"
               style="fill:url(#radialGradient170);stroke:none"
               id="path172"
               inkscape:connector-curvature="0" /></g></g></g></g><g
       id="g174"><g
         id="g176"
         clip-path="url(#clipPath180)"><g
           id="g182"
           transform="translate(141.9434,94.6113)"><path
             d="m 0,0 c -4.31,-3.092 -10.336,-2.717 -14.21,1.166 -4.307,4.306 -4.307,11.295 0,15.601 4.308,4.305 11.29,4.305 15.598,0 l 3.219,3.215 c -6.085,6.087 -15.953,6.087 -22.034,0 -6.086,-6.086 -6.086,-15.958 0,-22.039 C -12.71,-6.764 -5.734,-7.812 0,-5.218 v -5.519 h -16.87 l -4.586,-4.587 H 4.585 V 5.14 c 0,0 -1.201,-1.987 -3.197,-3.974 C 0.951,0.73 0.479,0.351 0,0"
             style="fill:#231f20;fill-opacity:1;fill-rule:nonzero;stroke:none"
             id="path184"
             inkscape:connector-curvature="0" /></g><g
           id="g186"
           transform="translate(250.8813,112.5322)"><path
             d="m 0,0 c 4.309,3.084 10.337,2.71 14.207,-1.16 4.307,-4.313 4.307,-11.296 0,-15.603 -4.312,-4.304 -11.291,-4.304 -15.601,0 l -3.217,-3.221 c 6.091,-6.087 15.953,-6.079 22.03,0 6.085,6.088 6.085,15.953 0,22.032 C 12.71,6.766 5.731,7.81 0,5.222 v 5.519 h 16.867 l 4.585,4.583 H -4.589 V -5.141 c 0,0 1.203,1.981 3.195,3.981 C -0.953,-0.731 -0.491,-0.353 0,0"
             style="fill:#6d6f71;fill-opacity:1;fill-rule:nonzero;stroke:none"
             id="path188"
             inkscape:connector-curvature="0" /></g><g
           id="g190"
           transform="translate(158.4678,111.3311)"><path
             d="m 0,0 c 4.284,4.282 11.229,4.282 15.509,0 0.935,-0.941 1.65,-2.009 2.175,-3.148 H -2.189 C -1.657,-2.009 -0.939,-0.941 0,0 m 0,-15.519 c -2.14,2.146 -3.213,4.948 -3.213,7.762 h 26.548 c 0,1.552 -0.239,3.105 -0.701,4.609 -0.729,2.347 -2.006,4.555 -3.866,6.411 -6.082,6.087 -15.944,6.087 -22.029,0 -6.083,-6.093 -6.083,-15.958 0,-22.039 6.085,-6.094 15.947,-6.094 22.029,0 l -3.259,3.257 c -4.28,-4.286 -11.225,-4.286 -15.509,0"
             style="fill:#231f20;fill-opacity:1;fill-rule:nonzero;stroke:none"
             id="path192"
             inkscape:connector-curvature="0" /></g><g
           id="g194"
           transform="translate(225.9214,119.1484)"><path
             d="M 0,0 C -5.627,0 -10.541,-2.98 -13.278,-7.444 -16.019,-2.98 -20.931,0 -26.557,0 c -3.209,0 -6.186,-0.967 -8.666,-2.628 -1.863,-1.257 -3.426,-2.906 -4.612,-4.816 v -23.205 h 4.612 v 21.782 c 2.012,2.588 5.137,4.265 8.666,4.265 6.06,0 10.97,-4.927 10.97,-10.972 v -15.075 h 4.612 v 15.075 c 0,6.045 4.912,10.972 10.975,10.972 6.054,0 10.971,-4.927 10.971,-10.972 v -15.075 h 4.606 v 15.075 C 15.577,-6.973 8.603,0 0,0"
             style="fill:#6d6f71;fill-opacity:1;fill-rule:nonzero;stroke:none"
             id="path196"
             inkscape:connector-curvature="0" /></g><g
           id="g198"
           transform="translate(110.7539,190.6709)"><path
             d="m 0,0 c -4.285,-3.078 -10.28,-2.7 -14.132,1.158 -4.285,4.286 -4.285,11.237 0,15.517 4.281,4.287 11.222,4.287 15.513,0 l 3.194,3.204 c -6.046,6.049 -15.859,6.049 -21.915,0 -6.047,-6.059 -6.047,-15.872 0,-21.925 C -12.645,-6.73 -5.708,-7.775 0,-5.194 v -5.486 h -16.781 l -4.562,-4.566 H 4.561 V 5.115 c 0,0 -1.199,-1.97 -3.18,-3.957 C 0.95,0.729 0.48,0.347 0,0"
             style="fill:#231f20;fill-opacity:1;fill-rule:nonzero;stroke:none"
             id="path200"
             inkscape:connector-curvature="0" /></g><g
           id="g202"
           transform="translate(219.1118,208.5029)"><path
             d="m 0,0 c 4.28,3.066 10.282,2.689 14.13,-1.157 4.291,-4.292 4.291,-11.235 0,-15.526 -4.279,-4.276 -11.228,-4.276 -15.514,0 l -3.199,-3.195 c 6.056,-6.05 15.869,-6.05 21.916,0 6.051,6.05 6.051,15.858 0,21.916 C 12.643,6.72 5.703,7.766 0,5.186 v 5.486 h 16.775 l 4.563,4.566 H -4.56 V 2.056 -5.126 c 0,0 1.188,1.979 3.176,3.969 C -0.949,-0.734 -0.486,-0.354 0,0"
             style="fill:#6d6f71;fill-opacity:1;fill-rule:nonzero;stroke:none"
             id="path204"
             inkscape:connector-curvature="0" /></g><g
           id="g206"
           transform="translate(127.1885,207.3018)"><path
             d="m 0,0 c 4.258,4.247 11.17,4.247 15.435,0 0.929,-0.927 1.633,-1.995 2.158,-3.136 H -2.174 C -1.648,-1.995 -0.931,-0.927 0,0 m 0,-15.437 c -2.133,2.133 -3.197,4.927 -3.197,7.718 h 26.406 c 0,1.544 -0.234,3.089 -0.698,4.583 -0.713,2.33 -1.992,4.529 -3.838,6.384 -6.052,6.049 -15.863,6.049 -21.921,0 -6.048,-6.066 -6.048,-15.875 0,-21.925 6.058,-6.05 15.869,-6.05 21.921,0 l -3.238,3.24 C 11.17,-19.696 4.258,-19.696 0,-15.437"
             style="fill:#231f20;fill-opacity:1;fill-rule:nonzero;stroke:none"
             id="path208"
             inkscape:connector-curvature="0" /></g><g
           id="g210"
           transform="translate(194.2832,215.0801)"><path
             d="M 0,0 C -5.595,0 -10.479,-2.969 -13.211,-7.416 -15.932,-2.969 -20.82,0 -26.415,0 c -3.189,0 -6.148,-0.971 -8.614,-2.617 -1.86,-1.246 -3.419,-2.889 -4.584,-4.799 V -30.49 h 4.584 v 21.662 c 1.999,2.58 5.109,4.235 8.614,4.235 6.03,0 10.91,-4.87 10.91,-10.904 V -30.49 h 4.592 v 14.993 c 0,6.034 4.888,10.904 10.913,10.904 6.024,0 10.908,-4.87 10.908,-10.904 V -30.49 h 4.591 v 14.993 C 15.499,-6.932 8.557,0 0,0"
             style="fill:#6d6f71;fill-opacity:1;fill-rule:nonzero;stroke:none"
             id="path212"
             inkscape:connector-curvature="0" /></g></g></g><g
       id="g214"><g
         id="g216"
         clip-path="url(#clipPath220)"><g
           id="g222"><g
             id="g224"><path
               d="m 118.978,304.302 c -12.695,-12.698 -12.695,-33.281 0,-45.98 v 0 c 9.836,-9.832 24.396,-12.008 36.361,-6.604 v 0 -11.515 h -35.19 l -9.581,-9.569 h 54.338 v 42.667 l -8.211,-8.207 h -31.027 l 39.241,39.237 c -6.344,6.324 -14.649,9.486 -22.953,9.486 v 0 c -8.318,0 -16.634,-3.172 -22.978,-9.515"
               style="fill:url(#radialGradient230);stroke:none"
               id="path232"
               inkscape:connector-curvature="0" /></g></g></g></g><g
       id="g234"><g
         id="g236"
         clip-path="url(#clipPath240)"><g
           id="g242"><g
             id="g244"><path
               d="m 164.957,346.99 v -42.616 l 8.164,8.177 h 31.028 L 164.922,273.32 c 12.698,-12.686 33.27,-12.675 45.96,0 v 0 c 12.697,12.699 12.697,33.295 0,45.98 v 0 c -9.836,9.833 -24.399,12.022 -36.362,6.607 v 0 11.517 h 35.257 l 9.515,9.566 z"
               style="fill:url(#radialGradient250);stroke:none"
               id="path252"
               inkscape:connector-curvature="0" /></g></g></g></g><g
       id="g254"><g
         id="g256"
         clip-path="url(#clipPath260)"><g
           id="g262"><g
             id="g264"><path
               d="m 337.61,479.164 c -6.056,-6.057 -6.056,-15.883 0,-21.939 v 0 c 4.698,-4.693 11.641,-5.736 17.355,-3.154 v 0 -5.495 h -16.822 l -4.543,-4.569 h 25.935 v 20.368 l -3.927,-3.922 h -14.803 l 18.73,18.737 c -3.025,3.013 -6.985,4.52 -10.946,4.52 v 0 c -3.973,0 -7.946,-1.515 -10.979,-4.546"
               style="fill:url(#radialGradient270);stroke:none"
               id="path272"
               inkscape:connector-curvature="0" /></g></g></g></g><g
       id="g274"><g
         id="g276"
         clip-path="url(#clipPath280)"><g
           id="g282"><g
             id="g284"><path
               d="m 359.553,499.547 v -20.344 l 3.902,3.902 14.806,0.005 -18.718,-18.735 c 6.059,-6.049 15.876,-6.04 21.935,0.013 v 0 c 6.058,6.053 6.058,15.882 0,21.939 v 0 c -4.699,4.692 -11.643,5.735 -17.358,3.155 v 0 5.495 h 16.807 l 4.565,4.57 z"
               style="fill:url(#radialGradient290);stroke:none"
               id="path292"
               inkscape:connector-curvature="0" /></g></g></g></g><g
       id="g294"><g
         id="g296"
         clip-path="url(#clipPath300)"><g
           id="g302"
           transform="translate(418.0117,459.333)"><path
             d="m 0,0 c -4.31,-3.091 -10.333,-2.714 -14.207,1.161 -4.306,4.313 -4.306,11.295 0,15.601 4.308,4.305 11.29,4.305 15.599,0 l 3.217,3.218 c -6.088,6.087 -15.954,6.087 -22.037,0 -6.085,-6.084 -6.085,-15.956 0,-22.036 C -12.71,-6.768 -5.73,-7.814 0,-5.223 v -5.516 h -16.871 l -4.585,-4.587 H 4.585 V 5.142 c 0,0 -1.201,-1.986 -3.193,-3.975 C 0.954,0.728 0.486,0.349 0,0"
             style="fill:#77787b;fill-opacity:1;fill-rule:nonzero;stroke:none"
             id="path304"
             inkscape:connector-curvature="0" /></g><g
           id="g306"
           transform="translate(526.9492,477.2539)"><path
             d="m 0,0 c 4.31,3.085 10.341,2.708 14.21,-1.163 4.308,-4.31 4.308,-11.295 0,-15.6 -4.312,-4.306 -11.29,-4.306 -15.6,0 l -3.22,-3.217 c 6.09,-6.089 15.953,-6.081 22.029,0 6.085,6.083 6.085,15.95 0,22.028 C 12.714,6.766 5.734,7.807 0,5.221 v 5.516 h 16.867 l 4.585,4.585 H -4.589 V -5.144 c 0,0 1.203,1.984 3.199,3.981 C -0.949,-0.734 -0.489,-0.351 0,0"
             style="fill:#008eb0;fill-opacity:1;fill-rule:nonzero;stroke:none"
             id="path308"
             inkscape:connector-curvature="0" /></g><g
           id="g310"
           transform="translate(434.5361,476.0518)"><path
             d="m 0,0 c 4.289,4.28 11.229,4.28 15.514,0 0.93,-0.939 1.644,-2.009 2.174,-3.148 H -2.189 C -1.654,-2.009 -0.934,-0.939 0,0 m 0,-15.517 c -2.137,2.143 -3.209,4.947 -3.209,7.755 h 26.547 c 0,1.559 -0.241,3.11 -0.7,4.614 -0.73,2.344 -2.007,4.558 -3.87,6.41 -6.078,6.087 -15.944,6.087 -22.029,0 -6.08,-6.09 -6.08,-15.957 0,-22.036 6.085,-6.093 15.951,-6.093 22.029,0 l -3.254,3.257 c -4.285,-4.285 -11.225,-4.285 -15.514,0"
             style="fill:#77787b;fill-opacity:1;fill-rule:nonzero;stroke:none"
             id="path312"
             inkscape:connector-curvature="0" /></g><g
           id="g314"
           transform="translate(501.9932,483.8706)"><path
             d="M 0,0 C -5.63,0 -10.541,-2.981 -13.278,-7.447 -16.02,-2.981 -20.935,0 -26.557,0 c -3.213,0 -6.185,-0.969 -8.666,-2.63 -1.866,-1.251 -3.429,-2.906 -4.612,-4.817 V -30.65 h 4.612 v 21.78 c 2.008,2.589 5.137,4.262 8.666,4.262 6.06,0 10.97,-4.917 10.97,-10.973 V -30.65 h 4.608 v 15.069 c 0,6.056 4.916,10.973 10.979,10.973 6.054,0 10.968,-4.917 10.968,-10.973 V -30.65 h 4.608 v 15.069 C 15.576,-6.972 8.603,0 0,0"
             style="fill:#008eb0;fill-opacity:1;fill-rule:nonzero;stroke:none"
             id="path316"
             inkscape:connector-curvature="0" /></g><g
           id="g318"
           transform="translate(386.8213,555.395)"><path
             d="m 0,0 c -4.281,-3.08 -10.276,-2.699 -14.132,1.155 -4.285,4.287 -4.285,11.238 0,15.515 4.285,4.289 11.222,4.289 15.516,0 l 3.19,3.202 c -6.042,6.055 -15.854,6.055 -21.911,0 -6.048,-6.053 -6.048,-15.865 0,-21.918 4.692,-4.687 11.634,-5.728 17.337,-3.15 v -5.49 h -16.777 l -4.562,-4.562 H 4.567 V 5.107 c 0,0 -1.2,-1.964 -3.183,-3.952 C 0.953,0.725 0.48,0.347 0,0"
             style="fill:#77787b;fill-opacity:1;fill-rule:nonzero;stroke:none"
             id="path320"
             inkscape:connector-curvature="0" /></g><g
           id="g322"
           transform="translate(495.1787,573.2222)"><path
             d="m 0,0 c 4.285,3.068 10.289,2.688 14.134,-1.157 4.287,-4.289 4.287,-11.235 0,-15.522 -4.28,-4.281 -11.229,-4.281 -15.514,0 l -3.201,-3.194 c 6.055,-6.056 15.867,-6.056 21.918,0 6.052,6.044 6.052,15.854 0,21.911 C 12.646,6.722 5.704,7.766 0,5.186 v 5.49 h 16.783 l 4.559,4.562 H -4.555 V 2.054 -5.121 c 0,0 1.188,1.979 3.175,3.964 C -0.944,-0.734 -0.481,-0.354 0,0"
             style="fill:#008eb0;fill-opacity:1;fill-rule:nonzero;stroke:none"
             id="path324"
             inkscape:connector-curvature="0" /></g><g
           id="g326"
           transform="translate(403.2549,572.0239)"><path
             d="m 0,0 c 4.263,4.248 11.172,4.248 15.438,0 0.934,-0.932 1.635,-1.995 2.156,-3.138 H -2.174 C -1.643,-1.995 -0.925,-0.932 0,0 m 0,-15.438 c -2.128,2.135 -3.192,4.923 -3.192,7.719 h 26.408 c 0,1.546 -0.237,3.091 -0.704,4.581 -0.709,2.329 -1.989,4.528 -3.835,6.381 -6.05,6.055 -15.859,6.055 -21.924,0 -6.046,-6.063 -6.046,-15.873 0,-21.918 6.065,-6.055 15.874,-6.055 21.924,0 l -3.239,3.237 c -4.266,-4.261 -11.175,-4.261 -15.438,0"
             style="fill:#77787b;fill-opacity:1;fill-rule:nonzero;stroke:none"
             id="path328"
             inkscape:connector-curvature="0" /></g><g
           id="g330"
           transform="translate(470.3535,579.8037)"><path
             d="M 0,0 C -5.598,0 -10.482,-2.974 -13.211,-7.416 -15.931,-2.974 -20.818,0 -26.418,0 c -3.187,0 -6.147,-0.972 -8.614,-2.623 -1.859,-1.242 -3.411,-2.885 -4.581,-4.793 v -23.075 h 4.581 v 21.665 c 2.003,2.576 5.112,4.236 8.614,4.236 6.033,0 10.915,-4.879 10.915,-10.909 v -14.992 h 4.59 v 14.992 c 0,6.03 4.885,10.909 10.913,10.909 6.028,0 10.905,-4.879 10.905,-10.909 v -14.992 h 4.592 v 14.992 C 15.497,-6.936 8.558,0 0,0"
             style="fill:#008eb0;fill-opacity:1;fill-rule:nonzero;stroke:none"
             id="path332"
             inkscape:connector-curvature="0" /></g></g></g><g
       id="g334"><g
         id="g336"
         clip-path="url(#clipPath340)"><g
           id="g342"><g
             id="g344"><path
               d="m 395.049,669.019 c -12.694,-12.689 -12.694,-33.276 0,-45.976 v 0 c 9.834,-9.829 24.392,-12.008 36.363,-6.6 v 0 -11.524 h -35.194 l -9.581,-9.567 h 54.339 v 42.668 l -8.214,-8.21 h -31.025 l 39.242,39.244 c -6.343,6.321 -14.648,9.482 -22.951,9.483 v 0 c -8.319,0 -16.636,-3.172 -22.979,-9.518"
               style="fill:url(#radialGradient350);stroke:none"
               id="path352"
               inkscape:connector-curvature="0" /></g></g></g></g><g
       id="g354"><g
         id="g356"
         clip-path="url(#clipPath360)"><g
           id="g362"><g
             id="g364"><path
               d="m 441.025,711.713 v -42.615 l 8.168,8.174 h 31.023 l -39.223,-39.226 c 12.697,-12.693 33.272,-12.682 45.96,0 v 0 c 12.697,12.697 12.697,33.285 0,45.974 v 0 c -9.839,9.832 -24.403,12.019 -36.363,6.61 v 0 11.517 h 35.254 l 9.521,9.566 z"
               style="fill:url(#radialGradient370);stroke:none"
               id="path372"
               inkscape:connector-curvature="0" /></g></g></g></g><g
       id="g374"><g
         id="g376"
         clip-path="url(#clipPath380)"><g
           id="g382"><g
             id="g384"><path
               d="m 337.61,114.445 c -6.056,-6.054 -6.056,-15.881 0,-21.94 v 0 c 4.698,-4.696 11.641,-5.74 17.355,-3.152 v 0 -5.501 H 338.143 L 333.6,79.287 h 25.935 v 20.374 l -3.927,-3.926 h -14.803 l 18.73,18.736 c -3.024,3.01 -6.985,4.516 -10.946,4.516 v 0 c -3.973,0 -7.946,-1.514 -10.979,-4.542"
               style="fill:url(#radialGradient390);stroke:none"
               id="path392"
               inkscape:connector-curvature="0" /></g></g></g></g><g
       id="g394"><g
         id="g396"
         clip-path="url(#clipPath400)"><g
           id="g402"><g
             id="g404"><path
               d="m 359.553,134.826 v -20.342 l 3.902,3.897 14.806,0.009 -18.718,-18.729 c 6.059,-6.058 15.876,-6.049 21.935,0.002 v 0 c 6.058,6.057 6.058,15.883 0,21.949 v 0 c -4.699,4.686 -11.643,5.727 -17.358,3.148 v 0 5.498 h 16.807 l 4.565,4.568 z"
               style="fill:url(#radialGradient410);stroke:none"
               id="path412"
               inkscape:connector-curvature="0" /></g></g></g></g><g
       id="g414"><g
         id="g416"
         clip-path="url(#clipPath420)"><g
           id="g422"
           transform="translate(418.0117,94.6113)"><path
             d="m 0,0 c -4.31,-3.092 -10.333,-2.717 -14.207,1.166 -4.306,4.306 -4.306,11.295 0,15.601 4.308,4.305 11.29,4.305 15.599,0 l 3.217,3.215 c -6.088,6.087 -15.954,6.087 -22.037,0 -6.085,-6.086 -6.085,-15.958 0,-22.039 C -12.71,-6.764 -5.73,-7.812 0,-5.218 v -5.519 h -16.871 l -4.585,-4.587 H 4.585 V 5.14 c 0,0 -1.201,-1.987 -3.193,-3.974 C 0.954,0.73 0.486,0.351 0,0"
             style="fill:#6d6f71;fill-opacity:1;fill-rule:nonzero;stroke:none"
             id="path424"
             inkscape:connector-curvature="0" /></g><g
           id="g426"
           transform="translate(526.9492,112.5322)"><path
             d="m 0,0 c 4.31,3.084 10.341,2.71 14.21,-1.16 4.308,-4.313 4.308,-11.296 0,-15.603 -4.312,-4.304 -11.29,-4.304 -15.6,0 l -3.22,-3.221 c 6.09,-6.087 15.953,-6.079 22.029,0 6.085,6.088 6.085,15.953 0,22.032 C 12.714,6.766 5.734,7.81 0,5.222 v 5.519 h 16.867 l 4.585,4.583 H -4.589 V -5.141 c 0,0 1.203,1.981 3.199,3.981 0.441,0.429 0.901,0.807 1.39,1.16"
             style="fill:#e7e8e9;fill-opacity:1;fill-rule:nonzero;stroke:none"
             id="path428"
             inkscape:connector-curvature="0" /></g><g
           id="g430"
           transform="translate(434.5361,111.3311)"><path
             d="m 0,0 c 4.289,4.282 11.229,4.282 15.514,0 0.93,-0.941 1.644,-2.009 2.174,-3.148 H -2.189 C -1.654,-2.009 -0.934,-0.941 0,0 m 0,-15.519 c -2.137,2.146 -3.209,4.948 -3.209,7.762 h 26.547 c 0,1.552 -0.241,3.105 -0.7,4.609 -0.73,2.347 -2.007,4.555 -3.87,6.411 -6.078,6.087 -15.944,6.087 -22.029,0 -6.08,-6.093 -6.08,-15.958 0,-22.039 6.085,-6.094 15.951,-6.094 22.029,0 l -3.254,3.257 c -4.285,-4.286 -11.225,-4.286 -15.514,0"
             style="fill:#6d6f71;fill-opacity:1;fill-rule:nonzero;stroke:none"
             id="path432"
             inkscape:connector-curvature="0" /></g><g
           id="g434"
           transform="translate(501.9932,119.1484)"><path
             d="M 0,0 C -5.63,0 -10.541,-2.98 -13.278,-7.444 -16.02,-2.98 -20.935,0 -26.557,0 c -3.213,0 -6.185,-0.967 -8.666,-2.628 -1.866,-1.257 -3.429,-2.906 -4.612,-4.816 v -23.205 h 4.612 v 21.782 c 2.008,2.588 5.137,4.265 8.666,4.265 6.06,0 10.97,-4.927 10.97,-10.972 v -15.075 h 4.608 v 15.075 c 0,6.045 4.916,10.972 10.979,10.972 6.054,0 10.968,-4.927 10.968,-10.972 v -15.075 h 4.608 v 15.075 C 15.576,-6.973 8.603,0 0,0"
             style="fill:#e7e8e9;fill-opacity:1;fill-rule:nonzero;stroke:none"
             id="path436"
             inkscape:connector-curvature="0" /></g><g
           id="g438"
           transform="translate(386.8213,190.6709)"><path
             d="m 0,0 c -4.281,-3.078 -10.276,-2.7 -14.132,1.158 -4.285,4.286 -4.285,11.237 0,15.517 4.285,4.287 11.222,4.287 15.516,0 l 3.19,3.204 c -6.042,6.049 -15.854,6.049 -21.911,0 -6.048,-6.059 -6.048,-15.872 0,-21.925 C -12.645,-6.73 -5.703,-7.775 0,-5.194 v -5.486 h -16.777 l -4.562,-4.566 H 4.567 V 5.115 c 0,0 -1.2,-1.97 -3.183,-3.957 C 0.953,0.729 0.48,0.347 0,0"
             style="fill:#6d6f71;fill-opacity:1;fill-rule:nonzero;stroke:none"
             id="path440"
             inkscape:connector-curvature="0" /></g><g
           id="g442"
           transform="translate(495.1787,208.5029)"><path
             d="m 0,0 c 4.285,3.066 10.289,2.689 14.134,-1.157 4.287,-4.292 4.287,-11.235 0,-15.526 -4.28,-4.276 -11.229,-4.276 -15.514,0 l -3.201,-3.195 c 6.055,-6.05 15.867,-6.05 21.918,0 6.052,6.05 6.052,15.858 0,21.916 C 12.646,6.72 5.704,7.766 0,5.186 v 5.486 h 16.783 l 4.559,4.566 H -4.555 V 2.056 -5.126 c 0,0 1.188,1.979 3.175,3.969 C -0.944,-0.734 -0.481,-0.354 0,0"
             style="fill:#e7e8e9;fill-opacity:1;fill-rule:nonzero;stroke:none"
             id="path444"
             inkscape:connector-curvature="0" /></g><g
           id="g446"
           transform="translate(403.2549,207.3018)"><path
             d="m 0,0 c 4.263,4.247 11.172,4.247 15.438,0 0.934,-0.927 1.635,-1.995 2.156,-3.136 H -2.174 C -1.643,-1.995 -0.925,-0.927 0,0 m 0,-15.437 c -2.128,2.133 -3.192,4.927 -3.192,7.718 h 26.408 c 0,1.544 -0.237,3.089 -0.704,4.583 -0.709,2.33 -1.989,4.529 -3.835,6.384 -6.05,6.049 -15.859,6.049 -21.924,0 -6.046,-6.066 -6.046,-15.875 0,-21.925 6.065,-6.05 15.874,-6.05 21.924,0 l -3.239,3.24 c -4.266,-4.259 -11.175,-4.259 -15.438,0"
             style="fill:#6d6f71;fill-opacity:1;fill-rule:nonzero;stroke:none"
             id="path448"
             inkscape:connector-curvature="0" /></g><g
           id="g450"
           transform="translate(470.3535,215.0801)"><path
             d="M 0,0 C -5.598,0 -10.482,-2.969 -13.211,-7.416 -15.931,-2.969 -20.818,0 -26.418,0 c -3.187,0 -6.147,-0.971 -8.614,-2.617 -1.859,-1.246 -3.411,-2.889 -4.581,-4.799 V -30.49 h 4.581 v 21.662 c 2.003,2.58 5.112,4.235 8.614,4.235 6.033,0 10.915,-4.87 10.915,-10.904 V -30.49 h 4.59 v 14.993 c 0,6.034 4.885,10.904 10.913,10.904 6.028,0 10.905,-4.87 10.905,-10.904 V -30.49 h 4.592 v 14.993 C 15.497,-6.932 8.558,0 0,0"
             style="fill:#e7e8e9;fill-opacity:1;fill-rule:nonzero;stroke:none"
             id="path452"
             inkscape:connector-curvature="0" /></g></g></g><g
       id="g454"><g
         id="g456"
         clip-path="url(#clipPath460)"><g
           id="g462"><g
             id="g464"><path
               d="m 395.049,304.302 c -12.694,-12.698 -12.694,-33.281 0,-45.98 v 0 c 9.834,-9.832 24.392,-12.008 36.363,-6.604 v 0 -11.515 h -35.194 l -9.581,-9.569 h 54.339 v 42.667 l -8.214,-8.207 h -31.025 l 39.242,39.237 c -6.343,6.324 -14.649,9.486 -22.953,9.486 v 0 c -8.319,0 -16.635,-3.172 -22.977,-9.515"
               style="fill:url(#radialGradient470);stroke:none"
               id="path472"
               inkscape:connector-curvature="0" /></g></g></g></g><g
       id="g474"><g
         id="g476"
         clip-path="url(#clipPath480)"><g
           id="g482"><g
             id="g484"><path
               d="m 441.025,346.99 v -42.616 l 8.168,8.177 h 31.023 L 440.993,273.32 c 12.697,-12.686 33.272,-12.675 45.96,0 v 0 c 12.697,12.699 12.697,33.295 0,45.98 v 0 c -9.839,9.833 -24.403,12.022 -36.363,6.607 v 0 11.517 h 35.254 l 9.521,9.566 z"
               style="fill:url(#radialGradient490);stroke:none"
               id="path492"
               inkscape:connector-curvature="0" /></g></g></g></g></g></svg>